<svg width="40" height="40" viewBox="0 0 40 40" fill="none" xmlns="http://www.w3.org/2000/svg">
<path d="M20 0C21.8359 0 23.6068 0.240885 25.3125 0.722656C27.0182 1.19141 28.6068 1.86198 30.0781 2.73438C31.5625 3.60677 32.9102 4.65495 34.1211 5.87891C35.3451 7.08984 36.3932 8.4375 37.2656 9.92188C38.138 11.3932 38.8086 12.9818 39.2773 14.6875C39.7591 16.3932 40 18.1641 40 20C40 21.8359 39.7591 23.6068 39.2773 25.3125C38.8086 27.0182 38.138 28.6133 37.2656 30.0977C36.3932 31.569 35.3451 32.9167 34.1211 34.1406C32.9102 35.3516 31.5625 36.3932 30.0781 37.2656C28.6068 38.138 27.0182 38.8151 25.3125 39.2969C23.6068 39.7656 21.8359 40 20 40C18.1641 40 16.3932 39.7656 14.6875 39.2969C12.9818 38.8151 11.3867 38.138 9.90234 37.2656C8.43099 36.3932 7.08333 35.3516 5.85938 34.1406C4.64844 32.9167 3.60677 31.569 2.73438 30.0977C1.86198 28.6133 1.1849 27.0182 0.703125 25.3125C0.234375 23.6068 0 21.8359 0 20C0 18.1641 0.234375 16.3932 0.703125 14.6875C1.1849 12.9818 1.86198 11.3932 2.73438 9.92188C3.60677 8.4375 4.64844 7.08984 5.85938 5.87891C7.08333 4.65495 8.43099 3.60677 9.90234 2.73438C11.3867 1.86198 12.9818 1.19141 14.6875 0.722656C16.3932 0.240885 18.1641 0 20 0ZM20 37.5C21.6016 37.5 23.1445 37.2917 24.6289 36.875C26.1263 36.4583 27.5195 35.8724 28.8086 35.1172C30.1107 34.349 31.2956 33.431 32.3633 32.3633C33.431 31.2956 34.3424 30.1172 35.0977 28.8281C35.8659 27.526 36.4583 26.1328 36.875 24.6484C37.2917 23.1641 37.5 21.6146 37.5 20C37.5 18.3984 37.2917 16.8555 36.875 15.3711C36.4583 13.8737 35.8659 12.4805 35.0977 11.1914C34.3424 9.88932 33.431 8.70443 32.3633 7.63672C31.2956 6.56901 30.1107 5.65755 28.8086 4.90234C27.5195 4.13411 26.1263 3.54167 24.6289 3.125C23.1445 2.70833 21.6016 2.5 20 2.5C18.3984 2.5 16.849 2.70833 15.3516 3.125C13.8672 3.54167 12.474 4.13411 11.1719 4.90234C9.88281 5.65755 8.70443 6.56901 7.63672 7.63672C6.56901 8.70443 5.65104 9.88932 4.88281 11.1914C4.1276 12.4805 3.54167 13.8737 3.125 15.3711C2.70833 16.8555 2.5 18.3984 2.5 20C2.5 21.6016 2.70833 23.151 3.125 24.6484C3.54167 26.1328 4.1276 27.526 4.88281 28.8281C5.65104 30.1172 6.56901 31.2956 7.63672 32.3633C8.70443 33.431 9.88281 34.349 11.1719 35.1172C12.474 35.8724 13.8672 36.4583 15.3516 36.875C16.8359 37.2917 18.3854 37.5 20 37.5ZM11.25 18.75H28.75V21.25H11.25V18.75ZM11.25 12.5H28.75V15H11.25V12.5ZM11.25 25H28.75V27.5H11.25V25Z" fill="white"/>
</svg>
