<svg width="20" height="20" viewBox="0 0 20 20" fill="none" xmlns="http://www.w3.org/2000/svg">
<path d="M17.5 3.75H16.25V18.125C16.25 18.3854 16.2012 18.6296 16.1035 18.8574C16.0059 19.0853 15.8724 19.2839 15.7031 19.4531C15.5339 19.6224 15.3353 19.7559 15.1074 19.8535C14.8796 19.9512 14.6354 20 14.375 20H4.375C4.11458 20 3.87044 19.9512 3.64258 19.8535C3.41471 19.7559 3.21615 19.6224 3.04688 19.4531C2.8776 19.2839 2.74414 19.0853 2.64648 18.8574C2.54883 18.6296 2.5 18.3854 2.5 18.125V3.75H1.25V2.5H6.25V1.25C6.25 1.07422 6.28255 0.911458 6.34766 0.761719C6.41276 0.611979 6.50065 0.481771 6.61133 0.371094C6.72852 0.253906 6.86198 0.16276 7.01172 0.0976562C7.16146 0.0325521 7.32422 0 7.5 0H11.25C11.4258 0 11.5885 0.0325521 11.7383 0.0976562C11.888 0.16276 12.0182 0.253906 12.1289 0.371094C12.2461 0.481771 12.3372 0.611979 12.4023 0.761719C12.4674 0.911458 12.5 1.07422 12.5 1.25V2.5H17.5V3.75ZM7.5 2.5H11.25V1.25H7.5V2.5ZM15 3.75H3.75V18.125C3.75 18.2943 3.81185 18.4408 3.93555 18.5645C4.05924 18.6882 4.20573 18.75 4.375 18.75H14.375C14.5443 18.75 14.6908 18.6882 14.8145 18.5645C14.9382 18.4408 15 18.2943 15 18.125V3.75ZM7.5 16.25H6.25V6.25H7.5V16.25ZM10 16.25H8.75V6.25H10V16.25ZM12.5 16.25H11.25V6.25H12.5V16.25Z" fill="#2E5597"/>
</svg>
