<svg width="20" height="20" viewBox="0 0 20 20" fill="none" xmlns="http://www.w3.org/2000/svg">
<path d="M20 3.27148C20 3.70117 19.9186 4.11784 19.7559 4.52148C19.5931 4.92513 19.3555 5.2832 19.043 5.5957L6.18164 18.457L0 20L1.54297 13.8184L14.4043 0.957031C14.7168 0.644531 15.0749 0.406901 15.4785 0.244141C15.8822 0.0813802 16.2988 0 16.7285 0C17.1777 0 17.6009 0.0878906 17.998 0.263672C18.3952 0.432943 18.7402 0.667318 19.0332 0.966797C19.3327 1.25977 19.5671 1.60482 19.7363 2.00195C19.9121 2.39909 20 2.82227 20 3.27148ZM3.18359 13.9453C3.8737 14.1732 4.46615 14.5378 4.96094 15.0391C5.46224 15.5339 5.82682 16.1263 6.05469 16.8164L16.6113 6.25L13.75 3.38867L3.18359 13.9453ZM1.71875 18.2812L4.93164 17.4805C4.86654 17.181 4.75911 16.8978 4.60938 16.6309C4.46615 16.3639 4.29036 16.1263 4.08203 15.918C3.8737 15.7096 3.63607 15.5339 3.36914 15.3906C3.10221 15.2409 2.81901 15.1335 2.51953 15.0684L1.71875 18.2812ZM17.5 5.36133C17.6628 5.19857 17.819 5.04557 17.9688 4.90234C18.1185 4.75911 18.252 4.60938 18.3691 4.45312C18.4863 4.29036 18.5775 4.11784 18.6426 3.93555C18.7142 3.74674 18.75 3.52865 18.75 3.28125C18.75 3.0013 18.6947 2.74089 18.584 2.5C18.4798 2.2526 18.3333 2.03776 18.1445 1.85547C17.9622 1.66667 17.7474 1.52018 17.5 1.41602C17.2591 1.30534 16.9987 1.25 16.7188 1.25C16.4714 1.25 16.2533 1.28581 16.0645 1.35742C15.8822 1.42253 15.7096 1.51367 15.5469 1.63086C15.3906 1.74805 15.2409 1.88151 15.0977 2.03125C14.9544 2.18099 14.8014 2.33724 14.6387 2.5L17.5 5.36133Z" fill="#2E5597"/>
</svg>
