<svg width="148" height="48" viewBox="0 0 148 48" fill="none" xmlns="http://www.w3.org/2000/svg">
<path d="M0.0478516 8.96289H5.78225V21.0582H11.3328V8.96289H16.8833V39.1468H11.2442V26.2546H5.59836V39.1468H0.0478516V8.96289Z" fill="white" stroke="white" stroke-width="0.14"/>
<path d="M24.2728 10.3994H18.627V37.7161H24.2728V10.3994Z" fill="white" stroke="white" stroke-width="0.14"/>
<path d="M32.2133 21.3711H25.9409V26.7445H32.2133V21.3711Z" fill="white" stroke="white" stroke-width="0.14"/>
<path d="M33.6914 10.4883V37.6279H47.3055V32.343H38.4383V10.5768L33.6914 10.4883Z" fill="white" stroke="white" stroke-width="0.14"/>
<path d="M54.6337 10.3994H48.9878V37.7161H54.6337V10.3994Z" fill="white" stroke="white" stroke-width="0.14"/>
<path d="M56.6357 37.389V10.3379L67.4712 23.4139V10.4264H72.6675V37.7908L61.8321 25.566V37.4775L56.6357 37.389Z" fill="white" stroke="white" stroke-width="0.14"/>
<path d="M89.4551 10.4062H74.8535V37.614L89.6322 37.7025V32.152H80.1384V26.7786H86.3155V21.3166H80.0499V16.2973H89.5436L89.4551 10.4062Z" fill="white" stroke="white" stroke-width="0.14"/>
<path d="M145.063 1.66895L140.384 6.7291C140.105 6.44307 139.819 6.16384 139.526 5.89823L145.063 1.66895Z" fill="white"/>
<path d="M132.763 13.3623C133.036 13.6211 133.294 13.8799 133.546 14.1523C133.294 13.8799 133.036 13.6211 132.763 13.3623Z" fill="white"/>
<path d="M133.893 14.5471C136.025 17.0166 137.245 20.1425 137.35 23.4029C137.454 26.6634 136.438 29.8612 134.469 32.4625C132.501 35.0638 129.7 36.9112 126.533 37.6963C123.367 38.4814 120.027 38.1567 117.071 36.7764L116.854 36.9398L109.709 42.2247C114.249 45.1552 119.521 46.7505 124.924 46.8286C137.585 46.8286 148.924 34.6652 146.922 20.9966C146.043 14.983 143.782 10.1952 140.411 6.69467C140.132 6.40863 139.846 6.1294 139.553 5.86379C135.33 2.04313 129.569 0 122.751 0C109.75 0 103.791 10.0726 102.422 11.3326C100.25 13.3348 91.4233 13.4983 91.4233 13.4983V33.0034C91.4233 33.0034 101.585 35.1691 102.586 36.3337C104.041 37.9425 105.659 39.3963 107.414 40.672L107.469 40.6175L113.476 34.3655C110.823 31.9537 109.176 28.6308 108.864 25.0592C108.552 21.4876 109.597 17.9295 111.792 15.0942C113.986 12.2589 117.168 10.3547 120.704 9.76101C124.24 9.16735 127.869 9.92789 130.869 11.891" fill="white"/>
<path d="M133.75 23.6728L116.54 36.4833L109.239 41.9316L101.067 47.9997L107.823 40.9782L113.871 34.733L122.254 26.0224H113.251L131.319 12.1904C132.129 12.7628 132.876 13.4203 133.546 14.1518L124.754 23.6865L133.75 23.6728Z" fill="white"/>
<path d="M142.243 40.8628C142.535 40.861 142.824 40.9166 143.094 41.0263C143.348 41.1427 143.579 41.3042 143.776 41.503C144.014 41.7429 144.194 42.0343 144.303 42.3548C144.411 42.6753 144.444 43.0163 144.4 43.3517C144.356 43.6871 144.236 44.008 144.048 44.2896C143.861 44.5712 143.612 44.8061 143.319 44.9763C142.982 45.1725 142.599 45.2759 142.209 45.2759C141.819 45.2759 141.436 45.1725 141.099 44.9763C140.763 44.7867 140.485 44.5088 140.295 44.1727C140.1 43.8383 139.998 43.4569 140.003 43.0694C140.001 42.7762 140.058 42.4856 140.17 42.2148C140.282 41.944 140.448 41.6985 140.657 41.4928C140.866 41.2871 141.114 41.1253 141.386 41.0171C141.659 40.9089 141.95 40.8564 142.243 40.8628ZM142.243 41.2919C141.93 41.291 141.622 41.3733 141.351 41.5302C141.077 41.6935 140.853 41.9292 140.704 42.2113C140.544 42.481 140.461 42.7898 140.466 43.1035C140.464 43.3371 140.509 43.5687 140.597 43.7848C140.686 44.0009 140.817 44.1971 140.983 44.362C141.148 44.5269 141.345 44.6571 141.561 44.7451C141.778 44.833 142.01 44.8769 142.243 44.8742C142.554 44.8761 142.86 44.795 143.13 44.6394C143.399 44.4838 143.622 44.2592 143.776 43.9888C143.933 43.7202 144.015 43.4146 144.014 43.1035C144.015 42.788 143.933 42.4779 143.776 42.2045C143.622 41.9386 143.401 41.7179 143.135 41.5643C142.872 41.3869 142.567 41.2834 142.25 41.2646L142.243 41.2919ZM141.719 44.2476H141.242V41.8776H142.339C142.488 41.8724 142.637 41.9003 142.774 41.9593C142.884 42.0078 142.977 42.0885 143.04 42.1909C143.101 42.2987 143.132 42.4211 143.129 42.545C143.13 42.7036 143.072 42.8569 142.965 42.9741C142.84 43.097 142.677 43.1738 142.502 43.192C142.597 43.2266 142.682 43.2853 142.747 43.3623C142.839 43.486 142.924 43.6157 142.999 43.7504L143.272 44.2204H142.679L142.488 43.8458C142.421 43.7149 142.344 43.5896 142.257 43.4712C142.21 43.3984 142.144 43.3396 142.066 43.301C141.993 43.2713 141.914 43.2573 141.835 43.2601H141.712L141.719 44.2476ZM141.719 42.2794V42.906H142.1C142.235 42.914 142.371 42.8907 142.495 42.8379C142.542 42.8123 142.58 42.7733 142.604 42.726C142.628 42.6786 142.638 42.6251 142.631 42.5722C142.633 42.5289 142.623 42.4859 142.603 42.4476C142.583 42.4094 142.552 42.3772 142.516 42.3543C142.403 42.293 142.276 42.2647 142.148 42.2726L141.719 42.2794Z" fill="white"/>
</svg>
