<svg width="24" height="18" viewBox="0 0 24 18" fill="none" xmlns="http://www.w3.org/2000/svg">
<path d="M9.89303 6.4819C9.72205 6.28077 9.44408 6.28077 9.2731 6.4819C9.10167 6.6825 9.10167 7.00862 9.2731 7.20923C9.44408 7.41035 9.72205 7.41035 9.89303 7.20923C10.0645 7.00862 10.0645 6.6825 9.89303 6.4819Z" fill="#333333"/>
<path d="M12.2137 7.35938C11.4885 7.35938 10.8984 8.05162 10.8984 8.90251C10.8984 9.75339 11.4885 10.4456 12.2137 10.4456C12.9389 10.4456 13.529 9.75339 13.529 8.90251C13.529 8.05162 12.9389 7.35938 12.2137 7.35938ZM12.2137 9.41689C11.972 9.41689 11.7753 9.18614 11.7753 8.90251C11.7753 8.61888 11.972 8.38813 12.2137 8.38813C12.4555 8.38813 12.6521 8.61888 12.6521 8.90251C12.6521 9.18614 12.4555 9.41689 12.2137 9.41689Z" fill="#333333"/>
<path d="M12.2144 4.78809C11.7244 4.78809 11.2505 4.90428 10.806 5.13349C10.5844 5.24784 10.4837 5.55132 10.5811 5.81139C10.6785 6.07146 10.9372 6.18956 11.1589 6.07532C11.4914 5.90382 11.8466 5.81684 12.2144 5.81684C13.6649 5.81684 14.845 7.20134 14.845 8.90311C14.845 10.6049 13.6649 11.9894 12.2144 11.9894C10.7639 11.9894 9.58388 10.6049 9.58388 8.90311C9.58388 8.88552 9.58384 8.86834 9.58419 8.85074C9.5898 8.56676 9.39812 8.33117 9.15607 8.32459C8.91362 8.31749 8.71321 8.54284 8.7076 8.82688C8.70708 8.85249 8.70703 8.87749 8.70703 8.90311C8.70703 11.1721 10.2804 13.0181 12.2144 13.0181C14.1484 13.0181 15.7218 11.1721 15.7218 8.90311C15.7218 6.63409 14.1484 4.78809 12.2144 4.78809Z" fill="#333333"/>
<path d="M23.3277 8.99069C20.5426 5.29134 16.4072 2.21582 12.2139 2.21582C8.01996 2.21582 3.88462 5.29211 1.10006 8.99069C0.939768 9.20364 0.956954 9.52868 1.13842 9.71673C1.31993 9.90479 1.59701 9.88463 1.75725 9.67173C1.85068 9.54761 1.94639 9.42395 2.04332 9.30106C4.2098 13.1416 8.13711 15.5896 12.2139 15.5896C16.2907 15.5896 20.218 13.1416 22.3844 9.30106C22.4814 9.424 22.5771 9.54766 22.6705 9.67173C22.8303 9.88396 23.1073 9.90536 23.2893 9.71673C23.4708 9.52868 23.488 9.20359 23.3277 8.99069ZM12.2139 14.5609C8.35948 14.5609 4.65234 12.2113 2.66988 8.54369C4.23189 6.74795 7.84109 3.24458 12.2139 3.24458C16.5867 3.24458 20.1959 6.74795 21.7579 8.54364C19.7754 12.2113 16.0683 14.5609 12.2139 14.5609Z" fill="#333333"/>
<rect x="-0.193914" y="-0.733356" width="1.98317" height="18.16" rx="0.991583" transform="matrix(0.823866 0.566784 -0.436039 0.899928 15.4234 1.03652)" fill="black" stroke="white"/>
</svg>
