<svg width="120" height="72" viewBox="0 0 120 72" fill="none" xmlns="http://www.w3.org/2000/svg">
<g clip-path="url(#clip0_5988_18776)">
<path d="M5.30741 70.5179C5.30741 70.9852 5.2317 71.2985 5.08027 71.4603C4.92884 71.6222 4.65732 71.7031 4.26309 71.7031H1.68624C1.26068 71.7031 0.981323 71.6118 0.845562 71.4316C0.7098 71.2515 0.644531 70.9016 0.644531 70.3821L1.50087 70.168V70.7607H4.45107V69.6145H1.84811C1.45388 69.6145 1.18497 69.5336 1.03615 69.3717C0.887335 69.2098 0.814231 68.8966 0.814231 68.4292V67.8757C0.814231 67.4084 0.887335 67.0951 1.03615 66.9332C1.18497 66.7714 1.45388 66.6904 1.84811 66.6904H4.2161C4.61555 66.6904 4.88707 66.774 5.03328 66.9385C5.17948 67.1029 5.25258 67.4215 5.25258 67.8966L4.39624 68.1394V67.5677H1.66274V68.6459H4.2657C4.65993 68.6459 4.93146 68.7268 5.08288 68.8887C5.23431 69.0506 5.31002 69.3639 5.31002 69.8312V70.5179H5.30741Z" fill="white"/>
<path d="M7.84261 71.7031H7.00977V67.5938H7.84261V71.7031Z" fill="white"/>
<path d="M14.0408 71.7031H13.2654V68.8757L11.7381 71.2071H11.5763L10.0333 68.9435V71.7031H9.3623V67.5938H10.0333L11.7068 70.0322L13.3725 67.5938H14.0435V71.7031H14.0408Z" fill="white"/>
<path d="M19.4397 69.3038C19.4397 69.8338 19.1734 70.1001 18.6408 70.1001H16.3851V71.7031H15.5601V67.5938H18.6382C18.9019 67.5938 19.0951 67.646 19.2204 67.7504C19.3666 67.8731 19.4397 68.0872 19.4397 68.3927V69.3038ZM18.6643 69.061V68.6328C18.6643 68.4135 18.5364 68.3013 18.2857 68.3013H16.3877V69.39H18.2857C18.5364 69.39 18.6643 69.2803 18.6643 69.061Z" fill="white"/>
<path d="M24.1572 71.7031H20.6353V67.5938H21.4759V70.9356H24.1598V71.7031H24.1572Z" fill="white"/>
<path d="M28.8047 71.7031H25.0947V67.5938H28.7629V68.3222H25.9354V69.2151H27.5828V69.9252H25.9354V70.9356H28.8047V71.7031Z" fill="white"/>
<path d="M34.41 71.7031H33.4414V66.6904H34.41V71.7031Z" fill="white"/>
<path d="M40.4647 71.7031H39.8903L36.9975 68.9357V71.7031H36.2378V67.5938H36.8122L39.7128 70.3246V67.5938H40.4647V71.7031Z" fill="white"/>
<path d="M46.1431 67.5938L44.1641 71.7031H43.5897L41.522 67.5938H42.4671L43.9135 70.5753L45.2789 67.5938H46.1431Z" fill="white"/>
<path d="M50.8056 71.7031H47.0957V67.5938H50.7639V68.3222H47.9364V69.2151H49.5838V69.9252H47.9364V70.9356H50.8056V71.7031Z" fill="white"/>
<path d="M56.2362 71.7031H55.6618L52.769 68.9357V71.7031H52.0093V67.5938H52.5836L55.4842 70.3246V67.5938H56.2362V71.7031Z" fill="white"/>
<path d="M61.4553 68.3326H59.8001V71.7031H58.9672V68.3326H57.3198V67.5938H61.4579V68.3326H61.4553Z" fill="white"/>
<path d="M66.8701 70.7316C66.8701 71.1206 66.8048 71.3791 66.6769 71.5096C66.5464 71.6402 66.3166 71.7028 65.9824 71.7028H63.3403C63.0061 71.7028 62.7738 71.6402 62.6458 71.5122C62.5153 71.3869 62.4526 71.1258 62.4526 70.729V68.562C62.4526 68.1678 62.5179 67.9067 62.6458 67.7814C62.7764 67.6561 63.0061 67.5908 63.3403 67.5908H65.9824C66.3166 67.5908 66.549 67.6535 66.6769 67.7814C66.8074 67.9067 66.8701 68.1678 66.8701 68.562V70.7316ZM66.0373 70.9144V68.3506H63.2829V70.9144H66.0373Z" fill="white"/>
<path d="M72.5409 71.7031H71.3451L69.9144 70.1497H69.1312V71.7031H68.3062V67.5938H71.3843C71.9169 67.5938 72.1832 67.8601 72.1832 68.39V69.3613C72.1832 69.7633 72.0396 70.0087 71.755 70.1001C71.6584 70.1314 71.3791 70.1497 70.9143 70.1497L72.5409 71.7031ZM71.4104 69.108V68.6328C71.4104 68.4135 71.2825 68.3013 71.0318 68.3013H69.1338V69.437H71.0318C71.2851 69.4396 71.4104 69.3299 71.4104 69.108Z" fill="white"/>
<path d="M77.2455 67.5934L75.3866 69.8361V71.7002H74.5537V69.8544L72.687 67.5908H73.8097L75.0289 69.126L76.2638 67.5908H77.2455V67.5934Z" fill="white"/>
<path d="M86.0125 70.5179C86.0125 70.9852 85.9368 71.2985 85.7853 71.4603C85.6339 71.6222 85.3624 71.7031 84.9682 71.7031H82.3913C81.9658 71.7031 81.6864 71.6118 81.5506 71.4316C81.4149 71.2515 81.3496 70.9016 81.3496 70.3821L82.2059 70.168V70.7607H85.1561V69.6145H82.5532C82.159 69.6145 81.89 69.5336 81.7412 69.3717C81.5924 69.2098 81.5193 68.8966 81.5193 68.4292V67.8757C81.5193 67.4084 81.5924 67.0951 81.7412 66.9332C81.89 66.7714 82.159 66.6904 82.5532 66.6904H84.9212C85.3206 66.6904 85.5921 66.774 85.7384 66.9385C85.8846 67.1029 85.9577 67.4215 85.9577 67.8966L85.1013 68.1394V67.5677H82.3704V68.6459H84.9734C85.3676 68.6459 85.6391 68.7268 85.7906 68.8887C85.942 69.0506 86.0177 69.3639 86.0177 69.8312V70.5179H86.0125Z" fill="white"/>
<path d="M91.6986 67.5934L89.8397 69.8361V71.7002H89.0069V69.8544L87.1401 67.5908H88.2628L89.482 69.126L90.7169 67.5908H91.6986V67.5934Z" fill="white"/>
<path d="M96.427 70.7319C96.427 71.1209 96.3617 71.3794 96.2338 71.5099C96.1033 71.6405 95.8735 71.7031 95.5393 71.7031H93.3175C92.952 71.7031 92.7092 71.63 92.5944 71.4838C92.4795 71.3376 92.4194 71.0478 92.4194 70.6144L93.1635 70.45V70.9356H95.6777V69.9931H93.4638C93.1296 69.9931 92.8998 69.9304 92.7771 69.8077C92.6361 69.6719 92.5683 69.4109 92.5683 69.0219V68.565C92.5683 68.176 92.6387 67.9149 92.7771 67.7791C92.8998 67.6564 93.1296 67.5938 93.4638 67.5938H95.4923C95.837 67.5938 96.0719 67.659 96.1999 67.7896C96.3252 67.9201 96.3904 68.1838 96.3904 68.5859L95.6725 68.7712V68.3352H93.3202V69.1994H95.5419C95.8761 69.1994 96.1085 69.262 96.2364 69.39C96.367 69.5153 96.4296 69.7764 96.4296 70.1732V70.7319H96.427Z" fill="white"/>
<path d="M101.557 68.3326H99.9016V71.7031H99.0688V68.3326H97.4214V67.5938H101.559V68.3326H101.557Z" fill="white"/>
<path d="M106.34 71.7031H102.63V67.5938H106.298V68.3222H103.471V69.2151H105.118V69.9252H103.471V70.9356H106.34V71.7031Z" fill="white"/>
<path d="M112.225 71.7031H111.45V68.8757L109.922 71.2071H109.76L108.217 68.9435V71.7031H107.546V67.5938H108.217L109.891 70.0322L111.557 67.5938H112.228V71.7031H112.225Z" fill="white"/>
<path d="M42.6912 54.3333C42.6912 58.0171 41.9863 60.4973 40.5817 61.7766C39.1771 63.0559 36.6394 63.6956 32.9765 63.6956H8.95193C4.98613 63.6956 2.37534 62.9802 1.11955 61.5469C-0.136242 60.1162 0.00473995 55.6752 0.00473995 51.5815L7.21836 51.5684V56.2496H34.7074V47.1954H10.4584C6.7928 47.1954 4.27078 46.5557 2.88967 45.2764C1.50856 43.9971 0.819308 41.5169 0.819308 37.833V33.46C0.819308 29.7761 1.50856 27.2959 2.88967 26.0166C4.27078 24.7373 6.7928 24.0977 10.4584 24.0977H32.5248C36.2399 24.0977 38.775 24.7504 40.1326 26.0558C41.4876 27.3611 41.3963 31.7107 41.3963 35.4442L34.1826 35.5329V31.0058H8.7274V39.5248H32.9791C36.6446 39.5248 39.1797 40.1645 40.5843 41.4438C41.9889 42.7231 42.6938 45.2033 42.6938 48.8871V54.3333H42.6912Z" fill="white"/>
<path d="M111.95 54.3333C111.95 58.0171 111.246 60.4973 109.841 61.7766C108.436 63.0559 105.899 63.6956 102.236 63.6956H78.2112C74.2454 63.6956 71.6346 62.9802 70.3788 61.5469C69.123 60.1162 69.264 55.6752 69.264 51.5815L76.4776 51.5684V56.2496H103.967V47.1954H79.7176C76.0521 47.1954 73.5301 46.5557 72.1489 45.2764C70.7678 43.9971 70.0786 41.5169 70.0786 37.833V33.46C70.0786 29.7761 70.7678 27.2959 72.1489 26.0166C73.5301 24.7373 76.0521 24.0977 79.7176 24.0977H101.784C105.499 24.0977 108.034 24.7504 109.392 26.0558C110.747 27.3611 110.656 31.7107 110.656 35.4442L103.442 35.5329V31.0058H77.9867V39.5248H102.238C105.904 39.5248 108.439 40.1645 109.844 41.4438C111.248 42.7231 111.953 45.2033 111.953 48.8871V54.3333H111.95Z" fill="white"/>
<path d="M62.6224 25.1913V36.1984L64.1811 37.6526V62.2802H47.8244V37.6526L49.5789 36.1984V25.1913H62.6224ZM62.6224 23.9512H49.5789C48.8949 23.9512 48.3414 24.5047 48.3414 25.1887V35.6136L47.036 36.6945C46.7514 36.9294 46.5869 37.2793 46.5869 37.6474V62.275C46.5869 62.959 47.1404 63.5125 47.8244 63.5125H64.1811C64.8651 63.5125 65.4186 62.959 65.4186 62.275V37.6474C65.4186 37.3028 65.275 36.9764 65.0243 36.7415L63.8599 35.6554V25.1861C63.8625 24.5073 63.3091 23.9512 62.6224 23.9512Z" fill="white"/>
<path d="M56.2858 0.712891C50.6491 0.712891 46.0776 5.28439 46.0776 10.9211C46.0776 14.9548 48.8059 16.9781 51.106 19.9779C52.106 21.2807 51.8188 24.7714 51.8188 24.7714L60.3717 24.8418C60.3717 24.8418 60.0402 21.5914 61.5388 19.8448C63.9851 16.9912 66.4914 14.9365 66.4914 10.9237C66.494 5.28439 61.9225 0.712891 56.2858 0.712891ZM56.3694 16.2576C53.461 16.2576 51.106 13.9 51.106 10.9942C51.106 8.08838 53.4636 5.73084 56.3694 5.73084C59.2752 5.73084 61.6327 8.08838 61.6327 10.9942C61.6327 13.9 59.2778 16.2576 56.3694 16.2576Z" stroke="white" stroke-width="0.893976" stroke-miterlimit="10"/>
<path d="M61.3742 32.1578C61.3742 33.5859 61.0504 34.6015 60.4891 35.4682L59.2542 33.8365C59.4787 33.4005 59.4161 33.1003 59.4161 32.5807C59.4161 30.8236 57.9932 29.4008 56.2361 29.4008C55.4059 29.4008 54.654 29.7167 54.0874 30.2362L56.21 32.1969V30.1892L59.0662 34.0245L60.2802 35.6536L61.6326 37.4707L60.0688 35.9643L58.672 34.6197L56.7296 32.7504V34.7555L53.6514 30.727C53.2781 31.2466 53.0588 31.8836 53.0588 32.5729C53.0588 34.3273 54.4817 35.7528 56.2387 35.7528C57.2152 35.7528 57.9227 35.5152 58.5049 34.8208L59.9017 36.1653C59.4265 36.8285 59.1445 37.0373 59.0349 37.1339C58.7738 37.3558 58.2908 39.622 58.2908 39.622H53.9438C53.9438 39.622 53.9073 37.6535 53.4608 37.1705C53.1789 36.865 50.9336 35.5361 50.9336 32.6407C50.9336 31.1213 51.3826 29.8368 52.2494 28.8969L51.3069 27.662L52.4348 28.7037C53.2102 27.9518 54.2754 27.4479 55.6147 27.2521C58.6642 26.8082 61.3742 29.3355 61.3742 32.1578Z" fill="white"/>
<path d="M53.103 56.6416H59.5282V57.9235H56.826V59.0044H59.5282V60.2706H53.103V58.9678H55.6381V57.9052H53.103V56.6416Z" fill="white"/>
<path d="M59.228 54.8398H53.4033V56.1244H59.228V54.8398Z" fill="white"/>
<path d="M56.9307 52.999H55.7036V54.4141H56.9307V52.999Z" fill="white"/>
<path d="M58.0011 49.6211H59.2099V52.5765H53.4035L53.4009 51.4878L58.0011 51.48V49.6211Z" fill="white"/>
<path d="M59.228 47.8506H53.4033V49.1351H59.228V47.8506Z" fill="white"/>
<path d="M53.4113 43.8564H59.2282L56.7662 46.1278L59.2256 46.1357V47.3184H53.4009L56.043 45.047H53.4113V43.8564Z" fill="white"/>
<path d="M57.9616 40.1074H59.2252L59.2069 43.3056H53.4058V40.1466L54.7399 40.1257V42.1151H55.6902V40.8019H56.9356V42.0968H57.9616V40.1074Z" fill="white"/>
<path d="M115.185 24.8501H114.248V27.3512H113.655V24.8501H112.718V24.4141H115.188V24.8501H115.185ZM119.059 27.3512H118.524V24.9284L117.618 27.3512H117.315L116.365 24.9284V27.3512H115.832V24.4141H116.647L117.475 26.5131L118.245 24.4141H119.059V27.3512Z" fill="white"/>
</g>
<defs>
<clipPath id="clip0_5988_18776">
<rect width="119.406" height="72" fill="white"/>
</clipPath>
</defs>
</svg>
