<svg width="510" height="307" viewBox="0 0 510 307" fill="none" xmlns="http://www.w3.org/2000/svg">
<path d="M22.6291 300.68C22.6291 302.672 22.3062 304.008 21.6606 304.698C21.0149 305.388 19.8572 305.734 18.1762 305.734H7.18879C5.37425 305.734 4.18311 305.344 3.60424 304.576C3.02537 303.808 2.74707 302.316 2.74707 300.101L6.39841 299.188V301.715H18.9777V296.828H7.87899C6.19803 296.828 5.05142 296.483 4.41689 295.793C3.78236 295.102 3.47065 293.767 3.47065 291.774V289.414C3.47065 287.421 3.78236 286.085 4.41689 285.395C5.05142 284.705 6.19803 284.36 7.87899 284.36H17.9758C19.679 284.36 20.8368 284.716 21.4602 285.417C22.0836 286.119 22.3953 287.477 22.3953 289.503L18.7439 290.538V288.1H7.0886V292.698H18.1873C19.8683 292.698 21.026 293.043 21.6717 293.733C22.3174 294.423 22.6402 295.759 22.6402 297.752V300.68H22.6291Z" fill="white"/>
<path d="M33.4388 305.733H29.8877V288.211H33.4388V305.733Z" fill="white"/>
<path d="M59.8658 305.733H56.5595V293.677L50.0472 303.618H49.357L42.7779 293.967V305.733H39.917V288.211H42.7779L49.9136 298.609L57.016 288.211H59.8769V305.733H59.8658Z" fill="white"/>
<path d="M82.8876 295.503C82.8876 297.763 81.7521 298.898 79.4811 298.898H69.863V305.733H66.3452V288.211H79.47C80.5944 288.211 81.4181 288.434 81.9525 288.879C82.5759 289.403 82.8876 290.315 82.8876 291.618V295.503V295.503ZM79.5813 294.468V292.642C79.5813 291.707 79.0359 291.228 77.9672 291.228H69.8741V295.87H77.9672C79.0359 295.87 79.5813 295.403 79.5813 294.468Z" fill="white"/>
<path d="M103.003 305.733H87.9858V288.211H91.5704V302.461H103.014V305.733H103.003Z" fill="white"/>
<path d="M122.819 305.733H107V288.211H122.641V291.317H110.585V295.124H117.609V298.152H110.585V302.461H122.819V305.733Z" fill="white"/>
<path d="M146.719 305.734H142.589V284.36H146.719V305.734Z" fill="white"/>
<path d="M172.535 305.733H170.086L157.751 293.933V305.733H154.512V288.211H156.961L169.329 299.856V288.211H172.535V305.733Z" fill="white"/>
<path d="M196.747 288.211L188.309 305.733H185.86L177.043 288.211H181.073L187.24 300.924L193.062 288.211H196.747Z" fill="white"/>
<path d="M216.629 305.733H200.811V288.211H216.451V291.317H204.395V295.124H211.419V298.152H204.395V302.461H216.629V305.733V305.733Z" fill="white"/>
<path d="M239.784 305.733H237.335L225 293.933V305.733H221.761V288.211H224.21L236.578 299.856V288.211H239.784V305.733Z" fill="white"/>
<path d="M262.037 291.362H254.979V305.733H251.428V291.362H244.403V288.211H262.048V291.362H262.037Z" fill="white"/>
<path d="M285.125 301.593C285.125 303.251 284.847 304.353 284.301 304.91C283.745 305.467 282.765 305.734 281.34 305.734H270.074C268.65 305.734 267.659 305.467 267.113 304.921C266.557 304.387 266.29 303.274 266.29 301.582V292.342C266.29 290.661 266.568 289.548 267.113 289.013C267.67 288.479 268.65 288.201 270.074 288.201H281.34C282.765 288.201 283.756 288.468 284.301 289.013C284.858 289.548 285.125 290.661 285.125 292.342V301.593ZM281.574 302.372V291.44H269.83V302.372H281.574Z" fill="white"/>
<path d="M309.304 305.733H304.205L298.105 299.11H294.765V305.733H291.248V288.211H304.372C306.643 288.211 307.779 289.347 307.779 291.607V295.748C307.779 297.462 307.167 298.509 305.953 298.898C305.541 299.032 304.35 299.11 302.369 299.11L309.304 305.733ZM304.484 294.668V292.642C304.484 291.707 303.938 291.228 302.87 291.228H294.776V296.071H302.87C303.949 296.082 304.484 295.614 304.484 294.668Z" fill="white"/>
<path d="M329.364 288.212L321.438 297.774V305.723H317.887V297.852L309.928 288.201H314.715L319.913 294.746L325.179 288.201H329.364V288.212Z" fill="white"/>
<path d="M366.746 300.68C366.746 302.672 366.423 304.008 365.777 304.698C365.132 305.388 363.974 305.734 362.293 305.734H351.305C349.491 305.734 348.3 305.344 347.721 304.576C347.142 303.808 346.864 302.316 346.864 300.101L350.515 299.188V301.715H363.094V296.828H351.996C350.315 296.828 349.168 296.483 348.534 295.793C347.899 295.102 347.587 293.767 347.587 291.774V289.414C347.587 287.421 347.899 286.085 348.534 285.395C349.168 284.705 350.315 284.36 351.996 284.36H362.093C363.796 284.36 364.953 284.716 365.577 285.417C366.2 286.119 366.512 287.477 366.512 289.503L362.861 290.538V288.1H351.216V292.698H362.315C363.996 292.698 365.154 293.043 365.8 293.733C366.445 294.423 366.768 295.759 366.768 297.752V300.68H366.746Z" fill="white"/>
<path d="M390.991 288.212L383.065 297.774V305.723H379.514V297.852L371.555 288.201H376.341L381.54 294.746L386.806 288.201H390.991V288.212Z" fill="white"/>
<path d="M411.152 301.592C411.152 303.251 410.874 304.353 410.328 304.91C409.772 305.466 408.792 305.733 407.367 305.733H397.894C396.335 305.733 395.3 305.422 394.81 304.798C394.32 304.175 394.064 302.939 394.064 301.091L397.237 300.39V302.461H407.957V298.442H398.517C397.092 298.442 396.113 298.175 395.59 297.651C394.988 297.073 394.699 295.959 394.699 294.301V292.353C394.699 290.694 395 289.581 395.59 289.002C396.113 288.479 397.092 288.211 398.517 288.211H407.167C408.636 288.211 409.638 288.49 410.184 289.046C410.718 289.603 410.996 290.727 410.996 292.442L407.935 293.232V291.373H397.905V295.058H407.378C408.803 295.058 409.794 295.325 410.34 295.87C410.896 296.405 411.163 297.518 411.163 299.21V301.592H411.152Z" fill="white"/>
<path d="M433.027 291.362H425.969V305.733H422.418V291.362H415.394V288.211H433.038V291.362H433.027Z" fill="white"/>
<path d="M453.421 305.733H437.602V288.211H453.243V291.317H441.187V295.124H448.211V298.152H441.187V302.461H453.421V305.733V305.733Z" fill="white"/>
<path d="M478.513 305.733H475.207V293.677L468.694 303.618H468.004L461.425 293.967V305.733H458.564V288.211H461.425L468.561 298.609L475.663 288.211H478.524V305.733H478.513Z" fill="white"/>
<path d="M182.031 231.671C182.031 247.379 179.025 257.954 173.036 263.409C167.047 268.864 156.226 271.591 140.608 271.591H38.17C21.2603 271.591 10.1282 268.541 4.77364 262.429C-0.58092 256.329 0.0202106 237.393 0.0202106 219.938L30.7783 219.882V239.842H147.989V201.236H44.5933C28.9638 201.236 18.2101 198.509 12.3212 193.054C6.43232 187.599 3.49344 177.024 3.49344 161.316V142.67C3.49344 126.962 6.43232 116.387 12.3212 110.932C18.2101 105.477 28.9638 102.75 44.5933 102.75H138.682C154.523 102.75 165.332 105.533 171.121 111.099C176.899 116.665 176.509 135.211 176.509 151.13L145.751 151.509V132.206H37.2127V168.53H140.619C156.249 168.53 167.058 171.257 173.047 176.712C179.036 182.167 182.042 192.742 182.042 208.45V231.671H182.031Z" fill="white"/>
<path d="M477.344 231.671C477.344 247.379 474.338 257.954 468.349 263.409C462.36 268.864 451.54 271.591 435.921 271.591H333.484C316.574 271.591 305.442 268.541 300.087 262.429C294.733 256.329 295.334 237.393 295.334 219.938L326.092 219.882V239.842H443.302V201.236H339.907C324.277 201.236 313.524 198.509 307.635 193.054C301.746 187.599 298.807 177.024 298.807 161.316V142.67C298.807 126.962 301.746 116.387 307.635 110.932C313.524 105.477 324.277 102.75 339.907 102.75H433.996C449.837 102.75 460.646 105.533 466.435 111.099C472.212 116.665 471.823 135.211 471.823 151.13L441.064 151.509V132.206H332.526V168.53H435.933C451.562 168.53 462.371 171.257 468.36 176.712C474.35 182.167 477.355 192.742 477.355 208.45V231.671H477.344Z" fill="white"/>
<path d="M267.014 107.414V154.347L273.66 160.548V265.557H203.917V160.548L211.398 154.347V107.414H267.014V107.414ZM267.014 102.126H211.398C208.481 102.126 206.121 104.487 206.121 107.403V151.854L200.555 156.462C199.341 157.464 198.64 158.956 198.64 160.526V265.535C198.64 268.452 201 270.812 203.917 270.812H273.66C276.576 270.812 278.936 268.452 278.936 265.535V160.526C278.936 159.056 278.324 157.665 277.255 156.663L272.29 152.032V107.392C272.301 104.498 269.941 102.126 267.014 102.126Z" fill="white"/>
<path d="M239.996 3.03955C215.962 3.03955 196.469 22.5319 196.469 46.5662C196.469 63.7653 208.102 72.3927 217.91 85.1836C222.173 90.7385 220.949 105.622 220.949 105.622L257.418 105.923C257.418 105.923 256.004 92.0632 262.394 84.6158C272.825 72.4484 283.511 63.6874 283.511 46.5773C283.523 22.5319 264.03 3.03955 239.996 3.03955ZM240.352 69.3203C227.951 69.3203 217.91 59.2679 217.91 46.8779C217.91 34.4878 227.962 24.4355 240.352 24.4355C252.742 24.4355 262.794 34.4878 262.794 46.8779C262.794 59.2679 252.753 69.3203 240.352 69.3203Z" stroke="white" stroke-width="3.81182" stroke-miterlimit="10"/>
<path d="M261.693 137.115C261.693 143.204 260.312 147.534 257.919 151.23L252.653 144.273C253.611 142.414 253.344 141.133 253.344 138.918C253.344 131.426 247.277 125.359 239.785 125.359C236.245 125.359 233.039 126.706 230.623 128.922L239.673 137.282V128.721L251.852 145.074L257.028 152.021L262.795 159.769L256.127 153.345L250.171 147.612L241.889 139.642V148.191L228.764 131.014C227.172 133.23 226.237 135.946 226.237 138.885C226.237 146.366 232.304 152.444 239.796 152.444C243.959 152.444 246.976 151.431 249.458 148.47L255.414 154.203C253.388 157.03 252.186 157.921 251.718 158.333C250.605 159.279 248.546 168.942 248.546 168.942H230.011C230.011 168.942 229.855 160.548 227.951 158.488C226.749 157.186 217.175 151.52 217.175 139.174C217.175 132.695 219.09 127.218 222.786 123.211L218.767 117.945L223.576 122.387C226.883 119.181 231.424 117.032 237.135 116.198C250.138 114.305 261.693 125.081 261.693 137.115Z" fill="white"/>
<path d="M226.426 241.512H253.822V246.978H242.301V251.587H253.822V256.986H226.426V251.431H237.236V246.9H226.426V241.512Z" fill="white"/>
<path d="M252.542 233.831H227.707V239.308H252.542V233.831Z" fill="white"/>
<path d="M242.746 225.983H237.514V232.017H242.746V225.983Z" fill="white"/>
<path d="M247.31 211.578H252.464V224.179H227.706L227.695 219.537L247.31 219.504V211.578Z" fill="white"/>
<path d="M252.542 204.03H227.707V209.507H252.542V204.03Z" fill="white"/>
<path d="M227.74 186.998H252.542L242.045 196.683L252.531 196.716V201.759H227.695L238.961 192.074H227.74V186.998Z" fill="white"/>
<path d="M247.143 171.012H252.531L252.453 184.649H227.717V171.179L233.406 171.09V179.573H237.458V173.973H242.768V179.495H247.143V171.012Z" fill="white"/>
<path d="M491.137 105.956H487.14V116.621H484.613V105.956H480.617V104.097H491.148V105.956H491.137ZM507.657 116.621H505.375V106.29L501.512 116.621H500.22L496.168 106.29V116.621H493.897V104.097H497.371L500.899 113.047L504.183 104.097H507.657V116.621Z" fill="white"/>
</svg>
