<svg width="18" height="18" viewBox="0 0 18 18" fill="none" xmlns="http://www.w3.org/2000/svg">
<path d="M6.75 9C6.23438 9 5.73633 9.06738 5.25586 9.20215C4.77539 9.33691 4.32715 9.52734 3.91113 9.77344C3.49512 10.0137 3.11426 10.3066 2.76855 10.6523C2.42871 10.9922 2.13574 11.3701 1.88965 11.7861C1.64941 12.2021 1.46191 12.6504 1.32715 13.1309C1.19238 13.6113 1.125 14.1094 1.125 14.625H0C0 13.9395 0.102539 13.2686 0.307617 12.6123C0.518555 11.9561 0.814453 11.3496 1.19531 10.793C1.58203 10.2305 2.04199 9.73535 2.5752 9.30762C3.11426 8.87402 3.70898 8.54297 4.35938 8.31445C4.03125 8.10352 3.73535 7.86035 3.47168 7.58496C3.21387 7.30957 2.99414 7.00781 2.8125 6.67969C2.63086 6.35156 2.49023 6.00586 2.39062 5.64258C2.29688 5.27344 2.25 4.89258 2.25 4.5C2.25 3.87891 2.36719 3.2959 2.60156 2.75098C2.83594 2.2002 3.15527 1.72266 3.55957 1.31836C3.96973 0.908203 4.44727 0.585938 4.99219 0.351562C5.54297 0.117187 6.12891 0 6.75 0C7.37109 0 7.9541 0.117187 8.49902 0.351562C9.0498 0.585938 9.52734 0.908203 9.93164 1.31836C10.3418 1.72266 10.6641 2.2002 10.8984 2.75098C11.1328 3.2959 11.25 3.87891 11.25 4.5C11.25 4.89258 11.2002 5.27344 11.1006 5.64258C11.0068 6.00586 10.8691 6.35156 10.6875 6.67969C10.5059 7.00781 10.2832 7.30957 10.0195 7.58496C9.76172 7.86035 9.46875 8.10352 9.14062 8.31445C9.54492 8.4668 9.93164 8.65723 10.3008 8.88574C10.6699 9.1084 11.0127 9.36621 11.3291 9.65918L10.5645 10.4941C10.043 10.0137 9.4541 9.64453 8.79785 9.38672C8.1416 9.12891 7.45898 9 6.75 9ZM3.375 4.5C3.375 4.96875 3.46289 5.4082 3.63867 5.81836C3.81445 6.22266 4.05469 6.58008 4.35938 6.89062C4.66992 7.19531 5.02734 7.43555 5.43164 7.61133C5.8418 7.78711 6.28125 7.875 6.75 7.875C7.21289 7.875 7.64941 7.78711 8.05957 7.61133C8.46973 7.43555 8.82715 7.19531 9.13184 6.89062C9.44238 6.58008 9.68555 6.22266 9.86133 5.81836C10.0371 5.4082 10.125 4.96875 10.125 4.5C10.125 4.03711 10.0371 3.60059 9.86133 3.19043C9.68555 2.78027 9.44238 2.42285 9.13184 2.11816C8.82715 1.80762 8.46973 1.56445 8.05957 1.38867C7.64941 1.21289 7.21289 1.125 6.75 1.125C6.28125 1.125 5.8418 1.21289 5.43164 1.38867C5.02734 1.56445 4.66992 1.80762 4.35938 2.11816C4.05469 2.42285 3.81445 2.78027 3.63867 3.19043C3.46289 3.60059 3.375 4.03711 3.375 4.5ZM16.8223 13.5264C16.8574 13.7021 16.875 13.8809 16.875 14.0625C16.875 14.2441 16.8574 14.4229 16.8223 14.5986L17.9121 15.0469L17.4814 16.0928L16.3916 15.6357C16.1865 15.9346 15.9346 16.1865 15.6357 16.3916L16.0928 17.4814L15.0469 17.9121L14.5986 16.8223C14.4229 16.8574 14.2441 16.875 14.0625 16.875C13.8809 16.875 13.7021 16.8574 13.5264 16.8223L13.0781 17.9121L12.0322 17.4814L12.4893 16.3916C12.1904 16.1865 11.9385 15.9346 11.7334 15.6357L10.6436 16.0928L10.2129 15.0469L11.3027 14.5986C11.2676 14.4229 11.25 14.2441 11.25 14.0625C11.25 13.8809 11.2676 13.7021 11.3027 13.5264L10.2129 13.0781L10.6436 12.0322L11.7334 12.4893C11.9385 12.1904 12.1904 11.9385 12.4893 11.7334L12.0322 10.6436L13.0781 10.2129L13.5264 11.3027C13.7021 11.2676 13.8809 11.25 14.0625 11.25C14.2441 11.25 14.4229 11.2676 14.5986 11.3027L15.0469 10.2129L16.0928 10.6436L15.6357 11.7334C15.9346 11.9385 16.1865 12.1904 16.3916 12.4893L17.4814 12.0322L17.9121 13.0781L16.8223 13.5264ZM14.0625 15.75C14.2969 15.75 14.5166 15.7061 14.7217 15.6182C14.9268 15.5303 15.1055 15.4102 15.2578 15.2578C15.4102 15.1055 15.5303 14.9268 15.6182 14.7217C15.7061 14.5166 15.75 14.2969 15.75 14.0625C15.75 13.8281 15.7061 13.6084 15.6182 13.4033C15.5303 13.1982 15.4102 13.0195 15.2578 12.8672C15.1055 12.7148 14.9268 12.5947 14.7217 12.5068C14.5166 12.4189 14.2969 12.375 14.0625 12.375C13.8281 12.375 13.6084 12.4189 13.4033 12.5068C13.1982 12.5947 13.0195 12.7148 12.8672 12.8672C12.7148 13.0195 12.5947 13.1982 12.5068 13.4033C12.4189 13.6084 12.375 13.8281 12.375 14.0625C12.375 14.2969 12.4189 14.5166 12.5068 14.7217C12.5947 14.9268 12.7148 15.1055 12.8672 15.2578C13.0195 15.4102 13.1982 15.5303 13.4033 15.6182C13.6084 15.7061 13.8281 15.75 14.0625 15.75Z" fill="black"/>
</svg>
