<svg width="20" height="20" viewBox="0 0 20 20" fill="none" xmlns="http://www.w3.org/2000/svg">
<path d="M18.75 7.5C18.9193 7.5 19.0788 7.53255 19.2285 7.59766C19.3848 7.66276 19.5182 7.75391 19.6289 7.87109C19.7461 7.98177 19.8372 8.11523 19.9023 8.27148C19.9674 8.42122 20 8.58073 20 8.75V17.5H15V20H5V17.5H0V8.75C0 8.58073 0.0325521 8.42122 0.0976562 8.27148C0.16276 8.11523 0.250651 7.98177 0.361328 7.87109C0.478516 7.75391 0.611979 7.66276 0.761719 7.59766C0.917969 7.53255 1.08073 7.5 1.25 7.5H5V0H15V7.5H18.75ZM6.25 7.5H13.75V1.25H6.25V7.5ZM13.75 13.75H6.25V18.75H13.75V13.75ZM18.75 8.75H1.25V16.25H5V12.5H15V16.25H18.75V8.75ZM3.125 10C3.29427 10 3.44076 10.0618 3.56445 10.1855C3.68815 10.3092 3.75 10.4557 3.75 10.625C3.75 10.7943 3.68815 10.9408 3.56445 11.0645C3.44076 11.1882 3.29427 11.25 3.125 11.25C2.95573 11.25 2.80924 11.1882 2.68555 11.0645C2.56185 10.9408 2.5 10.7943 2.5 10.625C2.5 10.4557 2.56185 10.3092 2.68555 10.1855C2.80924 10.0618 2.95573 10 3.125 10Z" fill="#00539F"/>
</svg>
