<svg width="14" height="16" viewBox="0 0 14 16" fill="none" xmlns="http://www.w3.org/2000/svg">
<path d="M5.64648 4.625C4.89648 4.625 4.17871 4.76562 3.49316 5.04688C2.80762 5.32812 2.19824 5.73535 1.66504 6.26855C1.13184 6.80176 0.724609 7.41113 0.443359 8.09668C0.162109 8.78223 0.0214844 9.5 0.0214844 10.25C0.0214844 11.0293 0.167969 11.7617 0.460938 12.4473C0.753906 13.127 1.15527 13.7217 1.66504 14.2314C2.1748 14.7412 2.76953 15.1426 3.44922 15.4355C4.13477 15.7285 4.86719 15.875 5.64648 15.875V14.75C5.02539 14.75 4.44238 14.6328 3.89746 14.3984C3.35254 14.1582 2.875 13.8359 2.46484 13.4316C2.06055 13.0215 1.73828 12.5439 1.49805 11.999C1.26367 11.4541 1.14648 10.8711 1.14648 10.25C1.14648 9.62891 1.26367 9.0459 1.49805 8.50098C1.73828 7.95605 2.06055 7.48145 2.46484 7.07715C2.875 6.66699 3.35254 6.34473 3.89746 6.11035C4.44238 5.87012 5.02539 5.75 5.64648 5.75H11.5967L8.06348 9.29199L8.85449 10.083L13.75 5.1875L8.85449 0.291992L8.06348 1.08301L11.5967 4.625H5.64648Z" fill="black"/>
</svg>
