<svg width="7" height="10" viewBox="0 0 7 10" fill="none" xmlns="http://www.w3.org/2000/svg">
<g clip-path="url(#clip0_6285_10198)">
<path d="M6.57856 5.77996C6.60054 5.82062 6.59854 5.86993 6.57332 5.90958L4.00606 9.94138C3.98333 9.97671 3.94587 9.99831 3.90441 9.99958C3.90441 9.99958 3.90242 9.99958 3.90067 9.99958C3.86146 9.99958 3.82325 9.98026 3.80003 9.94748L0.910106 5.91543C0.882636 5.8773 0.87839 5.82545 0.899867 5.78301C0.921095 5.74031 0.964049 5.71387 1.01075 5.71387H6.46868C6.51538 5.71337 6.55684 5.73878 6.57856 5.77996Z" fill="#231F20"/>
<path d="M6.46375 4.28571H1.01078C0.965123 4.28571 0.923205 4.2603 0.900999 4.2199C0.880041 4.17873 0.881039 4.12841 0.906239 4.08979L3.47117 0.0581932C3.49387 0.0228707 3.5313 0.00127059 3.57247 0C3.61064 0.000508238 3.65256 0.0182966 3.67676 0.0520944L6.54784 4.06006C6.57628 4.08369 6.59375 4.11901 6.59375 4.15865C6.59375 4.22854 6.53761 4.28571 6.46899 4.28571H6.46375Z" fill="#231F20"/>
</g>
<defs>
<clipPath id="clip0_6285_10198">
<rect width="5.70751" height="10" fill="white" transform="translate(0.88623)"/>
</clipPath>
</defs>
</svg>
