<svg width="40" height="40" viewBox="0 0 40 40" fill="none" xmlns="http://www.w3.org/2000/svg">
<g opacity="0.5" clip-path="url(#clip0_458_25620)">
<path d="M37.3329 6.66736C37.3307 4.82732 35.8396 3.33623 33.9996 3.33402C33.2741 3.3365 32.5698 3.57809 31.9956 4.02136C24.5772 -1.53484 14.3121 -1.26119 7.20038 4.68237C0.0886326 10.6259 -2.00314 20.6794 2.14775 28.9663C6.29864 37.2532 15.6027 41.5985 24.6215 39.4623C33.6404 37.3261 40.0068 29.2691 39.9996 20.0007C40.0078 16.0012 38.8041 12.0931 36.5469 8.79136C37.0512 8.19822 37.3296 7.4459 37.3329 6.66736ZM31.9656 19.334C31.6209 13.242 26.7582 8.37931 20.6662 8.03469V1.36136C24.4438 1.47837 28.0931 2.75892 31.1156 5.02802C30.8247 5.52565 30.6698 6.09098 30.6662 6.66736C30.6684 8.50739 32.1595 9.99849 33.9996 10.0007C34.5229 9.9973 35.0378 9.86909 35.5016 9.62669C37.4407 12.5026 38.5288 15.8673 38.6409 19.334H31.9656ZM25.9996 28.0007C25.9996 26.8961 26.895 26.0007 27.9996 26.0007C29.1041 26.0007 29.9996 26.8961 29.9996 28.0007C29.9996 29.1053 29.1041 30.0007 27.9996 30.0007C26.895 30.0007 25.9996 29.1053 25.9996 28.0007ZM29.4156 24.9947C28.9738 24.7817 28.49 24.6698 27.9996 24.6674C26.1595 24.6696 24.6684 26.1607 24.6662 28.0007C24.6687 28.4912 24.7805 28.9749 24.9936 29.4167C23.6552 30.1298 22.1797 30.5483 20.6662 30.644V30.0007C20.6662 29.6325 20.3678 29.334 19.9996 29.334C19.6314 29.334 19.3329 29.6325 19.3329 30.0007V30.6334C13.9767 30.2917 9.70856 26.0235 9.3669 20.6674H9.99956C10.3678 20.6674 10.6662 20.3689 10.6662 20.0007C10.6662 19.6325 10.3678 19.334 9.99956 19.334H9.35623C9.45186 17.8205 9.87035 16.345 10.5836 15.0067C11.0254 15.2197 11.5091 15.3315 11.9996 15.334C13.8396 15.3318 15.3307 13.8407 15.3329 12.0007C15.3304 11.5102 15.2186 11.0265 15.0056 10.5847C16.3439 9.87157 17.8194 9.45309 19.3329 9.35736V16.0607C17.6579 16.347 16.3458 17.659 16.0596 19.334H14.6662C14.298 19.334 13.9996 19.6325 13.9996 20.0007C13.9996 20.3689 14.298 20.6674 14.6662 20.6674H16.0596C16.3458 22.3424 17.6579 23.6544 19.3329 23.9407V25.334C19.3329 25.7022 19.6314 26.0007 19.9996 26.0007C20.3678 26.0007 20.6662 25.7022 20.6662 25.334V23.9407C22.3412 23.6544 23.6533 22.3424 23.9396 20.6674H30.6429C30.5473 22.1809 30.1288 23.6564 29.4156 24.9947ZM13.9996 12.0007C13.9996 13.1053 13.1041 14.0007 11.9996 14.0007C10.895 14.0007 9.99956 13.1053 9.99956 12.0007C9.99956 10.8961 10.895 10.0007 11.9996 10.0007C13.1041 10.0007 13.9996 10.8961 13.9996 12.0007ZM19.3329 19.334H17.4276C17.6715 18.4012 18.4 17.6726 19.3329 17.4287V19.334ZM19.3329 20.6674V22.5727C18.4 22.3288 17.6715 21.6002 17.4276 20.6674H19.3329ZM20.6662 20.6674H22.5716C22.3276 21.6002 21.5991 22.3288 20.6662 22.5727V20.6674ZM20.6662 19.334V17.4287C21.5991 17.6726 22.3276 18.4012 22.5716 19.334H20.6662ZM23.9396 19.334C23.6533 17.659 22.3412 16.347 20.6662 16.0607V9.36803C26.0224 9.70969 30.2906 13.9779 30.6322 19.334H23.9396ZM35.9996 6.66736C35.9996 7.77193 35.1041 8.66736 33.9996 8.66736C32.895 8.66736 31.9996 7.77193 31.9996 6.66736C31.9996 5.56279 32.895 4.66736 33.9996 4.66736C35.1041 4.66736 35.9996 5.56279 35.9996 6.66736ZM20.6662 38.6507V37.334C20.6662 36.9658 20.3678 36.6674 19.9996 36.6674C19.6314 36.6674 19.3329 36.9658 19.3329 37.334V38.6507C9.55426 38.2901 1.71021 30.446 1.34956 20.6674H2.66623C3.03442 20.6674 3.3329 20.3689 3.3329 20.0007C3.3329 19.6325 3.03442 19.334 2.66623 19.334H1.34956C1.71021 9.55538 9.55426 1.71134 19.3329 1.35069V8.02403C17.5298 8.12578 15.7731 8.63474 14.1949 9.51269C12.8831 8.33829 10.8823 8.39351 9.63736 9.63849C8.39239 10.8835 8.33716 12.8843 9.51156 14.196C8.63361 15.7743 8.12465 17.5309 8.0229 19.334H7.3329C6.96471 19.334 6.66623 19.6325 6.66623 20.0007C6.66623 20.3689 6.96471 20.6674 7.3329 20.6674H8.03356C8.37818 26.7594 13.2409 31.6221 19.3329 31.9667V32.6674C19.3329 33.0356 19.6314 33.334 19.9996 33.334C20.3678 33.334 20.6662 33.0356 20.6662 32.6674V31.9774C22.4694 31.8756 24.226 31.3666 25.8042 30.4887C27.116 31.6631 29.1168 31.6079 30.3618 30.3629C31.6067 29.1179 31.662 27.1171 30.4876 25.8054C31.3655 24.2271 31.8745 22.4705 31.9762 20.6674H38.6496C38.2889 30.446 30.4449 38.2901 20.6662 38.6507Z" fill="#231F20"/>
</g>
<defs>
<clipPath id="clip0_458_25620">
<rect width="40" height="40" fill="white"/>
</clipPath>
</defs>
</svg>
