<svg width="40" height="40" viewBox="0 0 40 40" fill="none" xmlns="http://www.w3.org/2000/svg">
<path d="M38.3288 7.5346L20.2038 1.2846C20.0719 1.23834 19.9281 1.23834 19.7962 1.2846L1.67125 7.5346C1.54832 7.57699 1.44167 7.65667 1.36616 7.76254C1.29065 7.86841 1.25005 7.99519 1.25 8.12523V38.1252C1.25 38.291 1.31585 38.45 1.43306 38.5672C1.55027 38.6844 1.70924 38.7502 1.875 38.7502H4.375C4.54076 38.7502 4.69973 38.6844 4.81694 38.5672C4.93415 38.45 5 38.291 5 38.1252V16.2502H35V38.1252C35 38.291 35.0658 38.45 35.1831 38.5672C35.3003 38.6844 35.4592 38.7502 35.625 38.7502H38.125C38.2908 38.7502 38.4497 38.6844 38.5669 38.5672C38.6842 38.45 38.75 38.291 38.75 38.1252V8.12523C38.75 7.99519 38.7093 7.86841 38.6338 7.76254C38.5583 7.65667 38.4517 7.57699 38.3288 7.5346ZM2.5 8.57085L20 2.53648L37.5 8.57085V11.2502H2.5V8.57085ZM3.75 37.5002H2.5V12.5002H3.75V37.5002ZM5 15.0002V12.5002H35V15.0002H5ZM37.5 37.5002H36.25V12.5002H37.5V37.5002Z" fill="white"/>
<path d="M20 10C20.4945 10 20.9778 9.85338 21.3889 9.57868C21.8001 9.30397 22.1205 8.91353 22.3097 8.45671C22.4989 7.9999 22.5484 7.49723 22.452 7.01228C22.3555 6.52732 22.1174 6.08187 21.7678 5.73223C21.4181 5.3826 20.9727 5.1445 20.4877 5.04804C20.0028 4.95157 19.5001 5.00108 19.0433 5.1903C18.5865 5.37952 18.196 5.69995 17.9213 6.11108C17.6466 6.5222 17.5 7.00555 17.5 7.5C17.5 8.16304 17.7634 8.79893 18.2322 9.26777C18.7011 9.73661 19.337 10 20 10ZM20 6.25C20.2472 6.25 20.4889 6.32331 20.6945 6.46066C20.9 6.59802 21.0602 6.79324 21.1549 7.02165C21.2495 7.25005 21.2742 7.50139 21.226 7.74386C21.1778 7.98634 21.0587 8.20907 20.8839 8.38388C20.7091 8.5587 20.4863 8.67775 20.2439 8.72598C20.0014 8.77421 19.7501 8.74946 19.5216 8.65485C19.2932 8.56024 19.098 8.40003 18.9607 8.19446C18.8233 7.9889 18.75 7.74723 18.75 7.5C18.75 7.16848 18.8817 6.85054 19.1161 6.61612C19.3505 6.3817 19.6685 6.25 20 6.25Z" fill="white"/>
<path d="M33.125 37.5H30.625V28.125C30.625 27.9592 30.5592 27.8003 30.4419 27.6831C30.3247 27.5658 30.1658 27.5 30 27.5H25.625V18.125C25.625 17.9592 25.5592 17.8003 25.4419 17.6831C25.3247 17.5658 25.1658 17.5 25 17.5H15C14.8342 17.5 14.6753 17.5658 14.5581 17.6831C14.4408 17.8003 14.375 17.9592 14.375 18.125V27.5H10C9.83424 27.5 9.67527 27.5658 9.55806 27.6831C9.44085 27.8003 9.375 27.9592 9.375 28.125V37.5H6.875C6.70924 37.5 6.55027 37.5658 6.43306 37.6831C6.31585 37.8003 6.25 37.9592 6.25 38.125C6.25 38.2908 6.31585 38.4497 6.43306 38.5669C6.55027 38.6842 6.70924 38.75 6.875 38.75H33.125C33.2908 38.75 33.4497 38.6842 33.5669 38.5669C33.6842 38.4497 33.75 38.2908 33.75 38.125C33.75 37.9592 33.6842 37.8003 33.5669 37.6831C33.4497 37.5658 33.2908 37.5 33.125 37.5ZM24.375 28.75H25.625V32.1138L25.2794 31.9406C25.1926 31.8973 25.097 31.8747 25 31.8747C24.903 31.8747 24.8074 31.8973 24.7206 31.9406L24.375 32.1138V28.75ZM20.625 18.75V22.1138L20.2794 21.9406C20.1926 21.8973 20.097 21.8747 20 21.8747C19.903 21.8747 19.8074 21.8973 19.7206 21.9406L19.375 22.1138V18.75H20.625ZM15.625 18.75H18.125V23.125C18.1244 23.2318 18.1512 23.337 18.2028 23.4305C18.2545 23.524 18.3292 23.6027 18.4199 23.6591C18.5106 23.7156 18.6142 23.7478 18.7209 23.7527C18.8276 23.7577 18.9338 23.7352 19.0294 23.6875L20 23.1988L20.9706 23.6844C21.0659 23.732 21.1718 23.7545 21.2783 23.7497C21.3847 23.7448 21.4882 23.7129 21.5788 23.6568C21.6694 23.6008 21.7442 23.5225 21.796 23.4294C21.8479 23.3363 21.875 23.2315 21.875 23.125V18.75H24.375V27.5H15.625V18.75ZM15 28.75H15.625V32.1138L15.2794 31.9406C15.1926 31.8973 15.097 31.8747 15 31.8747C14.903 31.8747 14.8074 31.8973 14.7206 31.9406L14.375 32.1138V28.75H15ZM10.625 28.75H13.125V33.125C13.1244 33.2318 13.1512 33.337 13.2028 33.4305C13.2545 33.524 13.3292 33.6027 13.4199 33.6591C13.5106 33.7156 13.6142 33.7478 13.7209 33.7527C13.8276 33.7577 13.9338 33.7353 14.0294 33.6875L15 33.1988L15.9706 33.6844C16.0659 33.732 16.1718 33.7545 16.2783 33.7497C16.3847 33.7448 16.4882 33.7129 16.5788 33.6568C16.6694 33.6008 16.7442 33.5225 16.796 33.4294C16.8479 33.3363 16.875 33.2315 16.875 33.125V28.75H19.375V37.5H10.625V28.75ZM20.625 28.75H23.125V33.125C23.1244 33.2318 23.1512 33.337 23.2028 33.4305C23.2545 33.524 23.3292 33.6027 23.4199 33.6591C23.5106 33.7156 23.6142 33.7478 23.7209 33.7527C23.8276 33.7577 23.9338 33.7353 24.0294 33.6875L25 33.1988L25.9706 33.6844C26.0659 33.732 26.1718 33.7545 26.2783 33.7497C26.3847 33.7448 26.4882 33.7129 26.5788 33.6568C26.6694 33.6008 26.7442 33.5225 26.796 33.4294C26.8479 33.3363 26.875 33.2315 26.875 33.125V28.75H29.375V37.5H20.625V28.75Z" fill="white"/>
</svg>
