<svg width="40" height="41" viewBox="0 0 40 41" fill="none" xmlns="http://www.w3.org/2000/svg">
<g clip-path="url(#clip0_458_25563)">
<path d="M27.189 12.166C26.757 12.166 26.4062 12.5164 26.4062 12.9499C26.4062 13.383 26.757 13.7341 27.189 13.7341C27.622 13.7341 27.9718 13.383 27.9718 12.9499C27.9718 12.5164 27.622 12.166 27.189 12.166Z" fill="white"/>
<path d="M12.9671 26.4151C12.5341 26.4151 12.1843 26.7664 12.1843 27.1993C12.1843 27.633 12.5341 27.9834 12.9671 27.9834C13.3992 27.9834 13.7499 27.633 13.7499 27.1993C13.7499 26.7664 13.3992 26.4151 12.9671 26.4151Z" fill="white"/>
<path d="M39.1438 4.82341C38.8796 4.76184 38.602 4.84179 38.4112 5.03478L35.166 8.31152H33.6102L31.8976 6.53392V4.9536L35.0963 1.70137C35.2856 1.509 35.3626 1.23239 35.2999 0.969254C35.2376 0.706429 35.0443 0.494453 34.7887 0.40807C33.9851 0.136668 33.1442 -0.000871648 32.289 -0.000871648C29.7395 -0.000871648 27.4232 1.19011 25.9341 3.26668C24.5404 5.21061 24.1108 7.59288 24.7263 9.87285L18.9604 15.6492L9.35419 6.00368V4.1106C9.35419 3.83521 9.20987 3.57974 8.97412 3.43822L3.43932 0.110936C3.1311 -0.0743892 2.73696 -0.0256838 2.48317 0.228871L0.26937 2.44634C0.0155784 2.7009 -0.0330395 3.09575 0.151647 3.40452L3.47234 8.94928C3.61361 9.18546 3.86832 9.32973 4.14321 9.33004L6.03227 9.33065L15.6394 18.9762L9.89541 24.7304C7.61954 24.1141 5.24032 24.5451 3.29897 25.9423C1.22736 27.4331 0.0394287 29.7529 0.0394287 32.307C0.0394287 33.1635 0.176721 34.0062 0.447636 34.8109C0.534169 35.0685 0.747905 35.2631 1.01209 35.3243C1.27659 35.3859 1.55392 35.3059 1.74503 35.113L4.98989 31.8365H6.55423L8.33658 33.6221V35.1892L5.06603 38.4399C4.87339 38.6314 4.79359 38.9092 4.85505 39.1742C4.9162 39.4389 5.11037 39.653 5.36752 39.7397C6.17079 40.0111 7.01197 40.1486 7.86691 40.1486C10.4164 40.1486 12.7318 38.9582 14.2203 36.8829C15.6149 34.9381 16.0451 32.5549 15.4299 30.2749L20.0431 25.6534L21.0999 26.8033L20.6149 27.2889C20.3091 27.5952 20.3091 28.0917 20.6149 28.3981C20.9207 28.7041 21.416 28.7041 21.7221 28.3981L22.1612 27.9582L32.0762 38.7475C32.0835 38.7555 32.0912 38.7631 32.0988 38.7708C33.9335 40.6087 36.9059 40.6093 38.7414 38.7705C40.5718 36.9359 40.5718 33.9508 38.7414 32.1162C38.7335 32.1082 38.7252 32.1006 38.717 32.0929L27.9302 22.1791L28.3644 21.7441C28.6702 21.4381 28.6702 20.9415 28.3644 20.6352C28.0586 20.3289 27.5633 20.3289 27.2572 20.6352L26.7756 21.118L25.6256 20.0605L30.2611 15.4167C30.9201 15.5931 31.6001 15.6826 32.289 15.6826C36.6053 15.6826 40.1165 12.1648 40.1165 7.841C40.1165 6.98422 39.9792 6.14183 39.7083 5.33681C39.6217 5.07919 39.408 4.88468 39.1438 4.82341ZM6.91107 7.99263C6.76429 7.84529 6.56524 7.77024 6.35731 7.77024L4.58688 7.76963L1.80863 3.12271L3.15801 1.7709L7.78863 4.55477V6.32838C7.78863 6.53607 7.87089 6.73518 8.01735 6.88221L17.8535 16.7584L16.7463 17.8673L6.91107 7.99263ZM26.8221 23.2892L37.6455 33.2364C38.8546 34.4605 38.8509 36.4424 37.6342 37.6619C36.4148 38.8835 34.4407 38.8872 33.2164 37.6726L23.269 26.8481L26.8221 23.2892ZM25.6675 22.2278L22.2077 25.6932L21.1509 24.5433L24.5175 21.1704L25.6675 22.2278ZM32.289 14.1142C31.6044 14.1142 30.9311 14.0042 30.2883 13.7874C30.0067 13.6927 29.6954 13.7656 29.4851 13.976C25.5608 17.9074 17.1049 26.3782 13.9912 29.4978C13.7809 29.7085 13.7078 30.0203 13.8029 30.3028C14.4536 32.2384 14.1423 34.303 12.9486 35.9679C11.7582 37.6279 9.90581 38.5802 7.86691 38.5802C7.63789 38.5802 7.41009 38.5677 7.18443 38.5435L9.67067 36.0721C9.81866 35.925 9.90214 35.7247 9.90214 35.5155V33.2971C9.90214 33.0891 9.81958 32.8897 9.67281 32.7426L7.4318 30.4976C7.28503 30.3506 7.08597 30.2678 6.87835 30.2678H4.66394C4.4551 30.2678 4.25512 30.3515 4.10804 30.4997L1.64137 32.9904C1.61691 32.7644 1.60468 32.5362 1.60468 32.3067C1.60468 30.2639 2.55502 28.4085 4.21231 27.216C5.87388 26.0201 7.9351 25.7079 9.86759 26.3601C10.1492 26.4553 10.4605 26.3821 10.6709 26.1714C10.714 26.1285 26.1537 10.6607 26.1647 10.6497C26.375 10.4389 26.4478 10.1274 26.353 9.84497C25.702 7.90931 26.0127 5.84531 27.2055 4.18167C28.3968 2.52017 30.2495 1.5675 32.2887 1.5675C32.5248 1.5675 32.7593 1.58068 32.9917 1.60641L30.5571 4.0818C30.4128 4.22853 30.3321 4.42611 30.3321 4.63196V6.85035C30.3321 7.05375 30.4106 7.24888 30.5516 7.395L32.7143 9.64004C32.8617 9.7932 33.0651 9.87959 33.2776 9.87959H35.492C35.7005 9.87959 35.9005 9.79626 36.0476 9.6477L38.5142 7.15729C38.5387 7.38336 38.5509 7.61157 38.5509 7.841C38.5509 11.3 35.7418 14.1142 32.289 14.1142Z" fill="white"/>
<path d="M24.4209 14.6133L14.6255 24.4264C14.32 24.7324 14.32 25.2289 14.6255 25.5352C14.9312 25.8416 15.4269 25.8416 15.7327 25.5352L25.5281 15.7222C25.8339 15.4162 25.8339 14.9196 25.5281 14.6133C25.2223 14.307 24.7267 14.307 24.4209 14.6133Z" fill="white"/>
<path d="M34.3136 35.4454C34.6193 35.7508 35.115 35.7508 35.4208 35.4436C35.7259 35.137 35.725 34.6404 35.4189 34.3347L28.3632 27.289C28.0572 26.9832 27.5612 26.9842 27.2563 27.2908C26.9509 27.5977 26.9518 28.094 27.2579 28.3997L34.3136 35.4454Z" fill="white"/>
</g>
<defs>
<clipPath id="clip0_458_25563">
<rect width="40" height="40.1504" fill="white"/>
</clipPath>
</defs>
</svg>
