<svg width="40" height="40" viewBox="0 0 40 40" fill="none" xmlns="http://www.w3.org/2000/svg">
<g clip-path="url(#clip0_458_25569)">
<path d="M34.1422 5.85781C30.3647 2.08031 25.3422 0 20 0C14.6578 0 9.63531 2.08031 5.85781 5.85781C2.08039 9.63531 0 14.6578 0 20C0 25.3422 2.08039 30.3647 5.85781 34.1422C9.63531 37.9197 14.6578 40 20 40C25.3422 40 30.3647 37.9197 34.1422 34.1422C37.9196 30.3647 40 25.3422 40 20C40 14.6578 37.9196 9.63531 34.1422 5.85781ZM20 37.6562C10.2643 37.6562 2.34375 29.7357 2.34375 20C2.34375 10.2643 10.2643 2.34375 20 2.34375C29.7357 2.34375 37.6562 10.2643 37.6562 20C37.6562 29.7357 29.7357 37.6562 20 37.6562Z" fill="white"/>
<path d="M21.2556 18.8285H18.7451C17.3149 18.8285 16.1514 17.665 16.1514 16.2349C16.1514 14.8046 17.315 13.6411 18.7451 13.6411H23.766C24.4132 13.6411 24.9379 13.1164 24.9379 12.4692C24.9379 11.8221 24.4132 11.2974 23.766 11.2974H21.1722V8.70361C21.1722 8.05643 20.6476 7.53174 20.0004 7.53174C19.3532 7.53174 18.8285 8.05643 18.8285 8.70361V11.2974H18.7452C16.0226 11.2974 13.8077 13.5124 13.8077 16.2349C13.8077 18.9574 16.0227 21.1723 18.7452 21.1723H21.2557C22.6858 21.1723 23.8494 22.3359 23.8494 23.766C23.8494 25.1962 22.6858 26.3598 21.2557 26.3598H16.2348C15.5876 26.3598 15.0629 26.8845 15.0629 27.5317C15.0629 28.1788 15.5876 28.7035 16.2348 28.7035H18.8285V31.2974C18.8285 31.9446 19.3532 32.4692 20.0004 32.4692C20.6476 32.4692 21.1722 31.9446 21.1722 31.2974V28.7035H21.2556C23.9781 28.7035 26.193 26.4885 26.193 23.766C26.193 21.0435 23.9781 18.8285 21.2556 18.8285Z" fill="white"/>
</g>
<defs>
<clipPath id="clip0_458_25569">
<rect width="40" height="40" fill="white"/>
</clipPath>
</defs>
</svg>
