<svg width="40" height="40" viewBox="0 0 40 40" fill="none" xmlns="http://www.w3.org/2000/svg">
<path d="M35.2909 18.5363C33.9298 17.8559 31.3778 17.848 31.2698 17.848C30.9462 17.848 30.6839 18.1103 30.6839 18.4339C30.6839 18.7575 30.9462 19.0198 31.2698 19.0198C31.9284 19.0199 33.8403 19.1213 34.7668 19.5845C34.8509 19.6266 34.9403 19.6465 35.0284 19.6465C35.2433 19.6465 35.4502 19.5277 35.5529 19.3225C35.6976 19.033 35.5803 18.6811 35.2909 18.5363Z" fill="white"/>
<path d="M38.2119 26.8776L35.792 26.1862C35.6875 26.1563 35.6145 26.0596 35.6145 25.9509V25.1432C35.8114 25.0068 35.9992 24.8541 36.1748 24.6837C37.0255 23.8581 37.4941 22.7507 37.4941 21.5654V20.4508L37.728 19.9829C37.9848 19.4692 38.1205 18.8941 38.1205 18.3199V15.3004C38.1205 14.9768 37.8582 14.7144 37.5346 14.7144H31.8961C29.8458 14.7144 28.1777 16.3826 28.1777 18.4329V18.4678C28.1777 18.9453 28.2905 19.4235 28.5041 19.8505L28.8041 20.4507V21.4077C28.8041 22.9244 29.5516 24.2853 30.6837 25.1042L30.6838 25.9508C30.6838 26.0813 30.6838 26.1354 30.2 26.2737L29.0192 26.611L25.6035 25.369C25.6158 25.2078 25.5614 25.0439 25.4438 24.9204L24.3523 23.7737V21.8487C24.4677 21.7536 24.5815 21.6559 24.6917 21.5526C26.0687 20.262 26.8584 18.4398 26.8584 16.5533V15.016C27.2741 14.1112 27.4848 13.1538 27.4848 12.1678V5.90295C27.4848 5.57936 27.2225 5.31702 26.8989 5.31702H18.1279C15.0412 5.31702 12.53 7.82827 12.53 10.9149V12.168C12.53 13.154 12.7407 14.1114 13.1565 15.0162V16.3389C13.1565 18.5292 14.1304 20.5025 15.6625 21.8034V23.7737L14.571 24.9205C14.4534 25.044 14.3991 25.2079 14.4113 25.369L10.8063 26.6799C10.545 26.7749 10.3023 26.9036 10.0819 27.0594L9.51578 26.7764C11.2009 26.0429 11.7348 25.0112 11.7604 24.96C11.8429 24.7951 11.8429 24.6008 11.7604 24.4359C11.338 23.5911 11.2868 22.0426 11.2457 20.7983C11.232 20.3841 11.2191 19.9928 11.1943 19.6444C10.9945 16.8339 8.85797 14.7144 6.22437 14.7144C3.59078 14.7144 1.45414 16.8338 1.25445 19.6444C1.22969 19.9929 1.21672 20.3842 1.20305 20.7985C1.16195 22.0426 1.1107 23.591 0.688359 24.4358C0.605859 24.6008 0.605859 24.795 0.688359 24.9599C0.713984 25.0112 1.24672 26.0407 2.93523 26.7751L1.36281 27.5612C0.522187 27.9819 0 28.8268 0 29.7665V34.0954C0 34.419 0.262344 34.6813 0.585938 34.6813C0.909531 34.6813 1.17188 34.419 1.17188 34.0954V29.7665C1.17188 29.2734 1.44586 28.8301 1.88688 28.6095L3.84492 27.6305L4.52602 28.2778C5.00227 28.7304 5.6132 28.9565 6.22437 28.9565C6.83539 28.9565 7.44664 28.7302 7.92273 28.2778L8.60375 27.6306L9.24219 27.9498C8.94156 28.4308 8.77094 28.9949 8.77094 29.5858V34.0955C8.77094 34.4191 9.03328 34.6815 9.35687 34.6815C9.68047 34.6815 9.94281 34.4191 9.94281 34.0955V29.5858C9.94281 28.7814 10.4507 28.0562 11.2067 27.7813L15.0077 26.3992L16.5899 28.7727C16.7922 29.0762 17.1163 29.2708 17.4792 29.3067C17.5197 29.3107 17.5599 29.3126 17.6001 29.3126C17.9202 29.3126 18.2269 29.1866 18.4561 28.9575L19.4214 27.9922V34.0956C19.4214 34.4192 19.6838 34.6815 20.0073 34.6815C20.3309 34.6815 20.5933 34.4192 20.5933 34.0956V27.9922L21.5586 28.9575C21.7877 29.1867 22.0944 29.3127 22.4146 29.3127C22.4547 29.3127 22.495 29.3108 22.5354 29.3068C22.8984 29.2708 23.2225 29.0762 23.4248 28.7728L25.0071 26.3994L28.808 27.7815C29.5639 28.0564 30.0719 28.7815 30.0719 29.5859V34.0957C30.0719 34.4193 30.3342 34.6816 30.6578 34.6816C30.9814 34.6816 31.2438 34.4193 31.2438 34.0957V29.5859C31.2438 28.7712 30.9201 28.0072 30.3771 27.4421L30.5219 27.4008C30.6679 27.359 30.8671 27.3019 31.0671 27.2039L32.5631 28.6999V34.0957C32.5631 34.4193 32.8255 34.6816 33.1491 34.6816C33.4727 34.6816 33.735 34.4193 33.735 34.0957V28.6999L35.2206 27.2143C35.2996 27.2544 35.3826 27.2883 35.4699 27.3133L37.8899 28.0047C38.4423 28.1625 38.8281 28.674 38.8281 29.2485V34.0957C38.8281 34.4193 39.0905 34.6816 39.4141 34.6816C39.7377 34.6816 40 34.4193 40 34.0957V29.2485C40 28.1533 39.2647 27.1784 38.2119 26.8776ZM3.75898 25.8426C2.66297 25.4483 2.1132 24.9225 1.87852 24.6354C2.03852 24.2171 2.14227 23.738 2.2125 23.2323C2.53562 24.0071 3.0768 24.6685 3.75898 25.1404V25.8426ZM7.11563 27.4284C6.61586 27.9033 5.83297 27.9032 5.33336 27.4283L4.78844 26.9105C4.88039 26.7383 4.93094 26.543 4.93094 26.3383V25.7138C5.33969 25.8415 5.77422 25.9104 6.22453 25.9104C6.6743 25.9104 7.10859 25.8412 7.51805 25.7142L7.51797 26.3383C7.51797 26.543 7.56844 26.7383 7.66047 26.9107L7.11563 27.4284ZM6.22469 24.7386C4.475 24.7386 3.05164 23.3151 3.05164 21.5655C3.05164 21.2419 2.7893 20.9796 2.4657 20.9796C2.43289 20.9796 2.40086 20.983 2.36953 20.9882C2.37125 20.9378 2.37289 20.8873 2.37461 20.8374C2.38766 20.4345 2.40023 20.054 2.42344 19.7276C2.49828 18.6747 2.91898 17.7046 3.60805 16.9957C4.30328 16.2804 5.2325 15.8865 6.22453 15.8865C7.21656 15.8865 8.1457 16.2804 8.84102 16.9957C9.53008 17.7046 9.95078 18.6747 10.0256 19.7276C10.0487 20.0539 10.0614 20.4344 10.0747 20.8372C10.0759 20.8718 10.077 20.9069 10.0782 20.9417C9.4407 19.9595 8.45617 19.2357 7.18406 18.8269C6.00883 18.4494 4.99805 18.4727 4.95539 18.4738C4.80195 18.4781 4.65633 18.5423 4.54984 18.6528L3.49266 19.7492C3.26805 19.9822 3.27477 20.3531 3.50773 20.5777C3.7407 20.8023 4.11164 20.7955 4.33625 20.5626L5.21594 19.6504C5.97352 19.6874 8.41078 19.9708 9.35867 22.0581C9.12016 23.5962 7.79813 24.7386 6.22469 24.7386ZM8.68976 25.8446L8.68984 25.1458C9.37148 24.6765 9.91344 24.0163 10.2368 23.2357C10.307 23.7402 10.4107 24.2182 10.5704 24.6355C10.337 24.9199 9.78469 25.4504 8.68976 25.8446ZM14.3284 16.3388V14.8851C14.3284 14.7969 14.3084 14.7098 14.2701 14.6303C13.893 13.8495 13.7019 13.0211 13.7019 12.168V10.915C13.7019 8.47444 15.6874 6.48897 18.1279 6.48897H26.313V12.168C26.313 13.0212 26.1218 13.8496 25.7448 14.6304C25.7064 14.7098 25.6865 14.7969 25.6865 14.8851V16.5535C25.6865 18.1403 25.0486 19.6121 23.8903 20.6978C23.7457 20.8333 23.5956 20.9603 23.4405 21.0787C23.437 21.081 23.4338 21.0836 23.4304 21.086C22.3453 21.9098 21.0163 22.3102 19.6283 22.2203C16.6563 22.0279 14.3284 19.4444 14.3284 16.3388ZM17.6275 28.1287C17.6234 28.1328 17.614 28.1424 17.5948 28.1404C17.5758 28.1385 17.5683 28.1273 17.5651 28.1225L15.7428 25.389L16.3292 24.7729L19.0937 26.6625L17.6275 28.1287ZM20.0074 25.8676L16.8344 23.6987V22.6049C17.6554 23.0487 18.5747 23.3263 19.5524 23.3896C19.7069 23.3996 19.8604 23.4045 20.0134 23.4045C21.1338 23.4045 22.2121 23.1367 23.1805 22.6283V23.6987L20.0074 25.8676ZM22.4498 28.1226C22.4466 28.1275 22.4391 28.1387 22.42 28.1405C22.4009 28.143 22.3915 28.1329 22.3873 28.1289L20.9212 26.6627L23.6856 24.773L24.2721 25.3892L22.4498 28.1226ZM33.1491 27.6283L31.8194 26.2987C31.8426 26.1933 31.8557 26.0779 31.8556 25.9506L31.8555 25.7033C32.2245 25.8244 32.6134 25.8963 33.0159 25.9083C33.061 25.9097 33.1058 25.9104 33.1508 25.9104C33.5955 25.9104 34.0295 25.8432 34.4427 25.715V25.9509C34.4427 26.0678 34.4573 26.1823 34.485 26.2924L33.1491 27.6283ZM35.3587 23.8428C34.7377 24.4455 33.9173 24.7637 33.0511 24.737C31.3555 24.6862 29.976 23.1926 29.976 21.4079V20.3125C29.976 20.2215 29.9548 20.1318 29.9141 20.0505L29.5522 19.3265C29.4196 19.0613 29.3495 18.7644 29.3495 18.4679V18.433C29.3495 17.0287 30.492 15.8864 31.8961 15.8864H36.9487V18.32C36.9487 18.7133 36.8557 19.1071 36.6798 19.4589L36.3841 20.0505C36.3434 20.1319 36.3222 20.2215 36.3222 20.3125V21.5655C36.3222 22.4311 35.98 23.2398 35.3587 23.8428Z" fill="white"/>
<path d="M36.9082 29.7512C36.5846 29.7512 36.3223 30.0135 36.3223 30.3371V34.0961C36.3223 34.4197 36.5846 34.682 36.9082 34.682C37.2318 34.682 37.4941 34.4197 37.4941 34.0961V30.3371C37.4941 30.0136 37.2318 29.7512 36.9082 29.7512Z" fill="white"/>
<path d="M3.09183 30.525C2.76823 30.525 2.50589 30.7873 2.50589 31.1109V34.0954C2.50589 34.4189 2.76823 34.6813 3.09183 34.6813C3.41542 34.6813 3.67777 34.4189 3.67777 34.0954V31.1109C3.67777 30.7874 3.41542 30.525 3.09183 30.525Z" fill="white"/>
<path d="M24.8078 12.3814C22.5917 10.1653 17.9551 10.589 16.0643 10.874C15.4688 10.9638 15.0366 11.4677 15.0366 12.0724V13.4222C15.0366 13.7458 15.2989 14.0081 15.6225 14.0081C15.9461 14.0081 16.2085 13.7458 16.2085 13.4222V12.0723C16.2085 12.0524 16.2216 12.0353 16.2391 12.0327C16.9943 11.9188 18.493 11.7432 20.0457 11.8467C21.8729 11.9684 23.1964 12.427 23.9792 13.21C24.2081 13.4388 24.5791 13.4388 24.8078 13.21C25.0367 12.9812 25.0367 12.6102 24.8078 12.3814Z" fill="white"/>
<path d="M13.1155 31.0045C12.7919 31.0045 12.5295 31.2669 12.5295 31.5905V34.0965C12.5295 34.4201 12.7919 34.6824 13.1155 34.6824C13.4391 34.6824 13.7014 34.4201 13.7014 34.0965V31.5905C13.7014 31.2669 13.4391 31.0045 13.1155 31.0045Z" fill="white"/>
<path d="M26.8988 31.0045C26.5752 31.0045 26.3129 31.2669 26.3129 31.5905V34.0965C26.3129 34.4201 26.5752 34.6824 26.8988 34.6824C27.2224 34.6824 27.4848 34.4201 27.4848 34.0965V31.5905C27.4848 31.2669 27.2224 31.0045 26.8988 31.0045Z" fill="white"/>
</svg>
